<?xml version="1.0" encoding="utf-8"?>
<!-- Generator: Adobe Illustrator 26.0.2, SVG Export Plug-In . SVG Version: 6.00 Build 0)  -->
<svg version="1.1" id="Laag_1" xmlns="http://www.w3.org/2000/svg" xmlns:xlink="http://www.w3.org/1999/xlink" x="0px" y="0px"
	 viewBox="0 0 36 35" style="enable-background:new 0 0 36 35;" xml:space="preserve">
<style type="text/css">
	.st0{fill:#070202;}
	.st1{clip-path:url(#SVGID_00000075139856601398998670000018279610537595471272_);}
	.st2{clip-path:url(#SVGID_00000129917475679034318530000003950804558469577604_);}
</style>
<path class="st0" d="M10.7,0h15c5.5,0,10,4.5,10,10v15c0,5.5-4.5,10-10,10h-15c-5.5,0-10-4.5-10-10V10C0.7,4.5,5.1,0,10.7,0z"/>
<g>
	<g>
		<defs>
			<path id="SVGID_1_" d="M21.2,16.3c-0.1,0.1-0.3,0.1-0.5,0.1c-0.4,0-0.7,0-1-0.1c-0.1,0-0.1,0-0.2,0c-0.1,0-0.1,0-0.1,0.1v0.2
				c0,0.1,0,0.1,0,0.1c0,0,0.1,0.1,0.1,0.1c0.3,0.1,0.7,0.2,1.1,0.2c0.4,0,0.8-0.1,1-0.3c0.3-0.2,0.4-0.5,0.4-0.8
				c0-0.2-0.1-0.4-0.2-0.6c-0.1-0.1-0.3-0.3-0.6-0.4l-0.6-0.2c-0.2-0.1-0.4-0.2-0.5-0.2c-0.1-0.1-0.1-0.2-0.1-0.3
				c0-0.3,0.2-0.5,0.7-0.5c0.3,0,0.5,0,0.8,0.1c0.1,0,0.1,0,0.2,0c0.1,0,0.1,0,0.1-0.1v-0.2c0-0.1,0-0.1,0-0.1c0,0-0.1-0.1-0.1-0.1
				c-0.3-0.1-0.6-0.2-0.9-0.2c-0.4,0-0.7,0.1-1,0.3c-0.2,0.2-0.4,0.5-0.4,0.8c0,0.5,0.3,0.8,0.8,1l0.6,0.2c0.2,0.1,0.3,0.1,0.4,0.2
				c0.1,0.1,0.1,0.2,0.1,0.3C21.4,16,21.3,16.2,21.2,16.3L21.2,16.3z M23.4,11.7c-0.1-0.1-0.2-0.1-0.4-0.1c-0.1,0-0.2,0-0.3,0.1
				c-0.1,0.1-0.1,0.2-0.1,0.3c0,0.1,0,0.2,0.1,0.3c0.1,0.1,0.2,0.1,0.3,0.1c0.1,0,0.2,0,0.3-0.1c0.1-0.1,0.1-0.2,0.1-0.3
				C23.5,11.9,23.5,11.8,23.4,11.7L23.4,11.7z M23.3,13.1h-0.4c-0.1,0-0.1,0-0.1,0.1v3.5c0,0.1,0,0.1,0.1,0.1h0.4
				c0.1,0,0.1,0,0.1-0.1v-3.5C23.4,13.2,23.4,13.1,23.3,13.1L23.3,13.1z M25.3,13.9c0.2-0.2,0.5-0.3,0.9-0.3c0.2,0,0.4,0,0.6,0.1
				c0.1,0,0.1,0,0.1,0c0.1,0,0.1,0,0.1-0.1v-0.2c0-0.1,0-0.1,0-0.1c0,0-0.1-0.1-0.1-0.1C26.6,13.1,26.3,13,26,13
				c-0.6,0-1,0.2-1.4,0.5c-0.3,0.3-0.5,0.8-0.5,1.5c0,0.6,0.1,1.1,0.5,1.4c0.3,0.3,0.7,0.5,1.3,0.5c0.3,0,0.6,0,0.8-0.1
				c0.1,0,0.1,0,0.1-0.1c0,0,0-0.1,0-0.1v-0.2c0-0.1,0-0.1-0.1-0.1c0,0-0.1,0-0.1,0c-0.2,0.1-0.5,0.1-0.7,0.1
				c-0.4,0-0.7-0.1-0.9-0.3c-0.2-0.2-0.3-0.5-0.3-1v-0.1C25,14.5,25.1,14.2,25.3,13.9L25.3,13.9z M14,16.9h0.4c0.1,0,0.1,0,0.1-0.1
				v-2.6c0-0.4-0.1-0.6-0.3-0.8c-0.2-0.2-0.4-0.3-0.8-0.3c-0.5,0-1,0.2-1.5,0.5c-0.2-0.4-0.5-0.5-0.9-0.5c-0.5,0-0.9,0.2-1.4,0.5
				l0-0.2c0-0.1,0-0.1-0.1-0.1c0,0-0.1,0-0.1,0l-0.3,0c-0.1,0-0.1,0-0.1,0.1v3.5c0,0.1,0,0.1,0.1,0.1h0.4c0.1,0,0.1,0,0.1-0.1v-2.8
				c0.4-0.2,0.7-0.3,1.1-0.3c0.2,0,0.4,0.1,0.4,0.2c0.1,0.1,0.1,0.3,0.1,0.5v2.4c0,0.1,0,0.1,0.1,0.1H12c0.1,0,0.1,0,0.1-0.1v-2.6
				V14c0,0,0-0.1,0-0.1c0.4-0.2,0.7-0.3,1.1-0.3c0.2,0,0.4,0.1,0.4,0.2c0.1,0.1,0.1,0.3,0.1,0.5v2.4C13.8,16.8,13.9,16.9,14,16.9
				L14,16.9z M17.9,13.3V16c-0.4,0.2-0.7,0.4-1.1,0.4c-0.2,0-0.4-0.1-0.5-0.2c-0.1-0.1-0.1-0.3-0.1-0.6v-2.4c0-0.1,0-0.1-0.1-0.1
				h-0.4c-0.1,0-0.1,0-0.1,0.1v2.6c0,0.4,0.1,0.6,0.3,0.8c0.2,0.2,0.5,0.3,0.8,0.3c0.5,0,1-0.2,1.4-0.5l0,0.2c0,0.1,0,0.1,0.1,0.1
				c0,0,0.1,0,0.1,0h0.3c0.1,0,0.1,0,0.1-0.1v-3.4c0-0.1,0-0.1-0.1-0.1h-0.4C18,13.1,17.9,13.2,17.9,13.3L17.9,13.3z"/>
		</defs>
		<use xlink:href="#SVGID_1_"  style="overflow:visible;fill-rule:evenodd;clip-rule:evenodd;fill:#FDCC0D;"/>
		<clipPath id="SVGID_00000129193881687894482330000001310595133734380436_">
			<use xlink:href="#SVGID_1_"  style="overflow:visible;"/>
		</clipPath>
		<g style="clip-path:url(#SVGID_00000129193881687894482330000001310595133734380436_);">
			<defs>
				<rect id="SVGID_00000126292713558142693830000011046077000330572985_" x="9.1" y="11.6" width="17.9" height="5.4"/>
			</defs>
			<use xlink:href="#SVGID_00000126292713558142693830000011046077000330572985_"  style="overflow:visible;fill:#FDCC0D;"/>
			<clipPath id="SVGID_00000025412813625020593490000010565535402305170337_">
				<use xlink:href="#SVGID_00000126292713558142693830000011046077000330572985_"  style="overflow:visible;"/>
			</clipPath>
		</g>
	</g>
	<g>
		<defs>
			<path id="SVGID_00000106843017902728661200000016632919653972606622_" d="M26.2,21.6c1.1-0.9,1.4-2.8,1.1-3.1
				c-0.1-0.1-0.6-0.2-1.2-0.2c-0.7,0-1.5,0.1-2.1,0.6c-0.2,0.1-0.1,0.3,0,0.3c0.6-0.1,2.1-0.2,2.4,0.1c0.2,0.3-0.3,1.7-0.5,2.3
				C25.9,21.6,26,21.7,26.2,21.6L26.2,21.6z M25.3,19.6c-2.3,1-4.7,1.4-7,1.4c-3.3,0-6.6-0.9-9.2-2.4c0,0-0.1,0-0.1,0
				c-0.1,0-0.2,0.2-0.1,0.3c2.4,2.2,5.6,3.5,9.2,3.5c2.5,0,5.5-0.8,7.5-2.3C26,19.9,25.7,19.5,25.3,19.6L25.3,19.6z"/>
		</defs>
		
			<use xlink:href="#SVGID_00000106843017902728661200000016632919653972606622_"  style="overflow:visible;fill-rule:evenodd;clip-rule:evenodd;fill:#FDCC0D;"/>
		<clipPath id="SVGID_00000121998457029373666970000012880105868073077691_">
			<use xlink:href="#SVGID_00000106843017902728661200000016632919653972606622_"  style="overflow:visible;"/>
		</clipPath>
		<g style="clip-path:url(#SVGID_00000121998457029373666970000012880105868073077691_);">
			<defs>
				<rect id="SVGID_00000101804083288687390500000014444094935658056069_" x="8.8" y="18.2" width="18.7" height="4.2"/>
			</defs>
			<use xlink:href="#SVGID_00000101804083288687390500000014444094935658056069_"  style="overflow:visible;fill:#FDCC0D;"/>
			<clipPath id="SVGID_00000005255059460329693240000013884382346569764225_">
				<use xlink:href="#SVGID_00000101804083288687390500000014444094935658056069_"  style="overflow:visible;"/>
			</clipPath>
		</g>
	</g>
</g>
</svg>
