<?xml version="1.0" encoding="utf-8"?>
<!-- Generator: Adobe Illustrator 26.0.2, SVG Export Plug-In . SVG Version: 6.00 Build 0)  -->
<svg version="1.1" id="Laag_1" xmlns="http://www.w3.org/2000/svg" xmlns:xlink="http://www.w3.org/1999/xlink" x="0px" y="0px"
	 viewBox="0 0 37 35" style="enable-background:new 0 0 37 35;" xml:space="preserve">
<style type="text/css">
	.st0{fill:#070202;}
	.st1{fill:#FDCC0D;}
</style>
<path class="st0" d="M10.8,0h15.8c5.5,0,10,4.5,10,10v15c0,5.5-4.5,10-10,10H10.8c-5.5,0-10-4.5-10-10V10C0.8,4.5,5.3,0,10.8,0z"/>
<path class="st1" d="M19.8,25v-6.8h2.3l0.3-2.7h-2.6v-1.7c0-0.8,0.2-1.3,1.3-1.3h1.4v-2.4C21.9,10,21.2,10,20.5,10
	c-2,0-3.4,1.2-3.4,3.5v2h-2.3v2.7h2.3V25H19.8z"/>
</svg>
