<?xml version="1.0" encoding="utf-8"?>
<!-- Generator: Adobe Illustrator 26.0.2, SVG Export Plug-In . SVG Version: 6.00 Build 0)  -->
<svg version="1.1" id="Laag_1" xmlns="http://www.w3.org/2000/svg" xmlns:xlink="http://www.w3.org/1999/xlink" x="0px" y="0px"
	 viewBox="0 0 36 35" style="enable-background:new 0 0 36 35;" xml:space="preserve">
<style type="text/css">
	.st0{fill:#070202;}
	.st1{fill:#FDCC0D;}
</style>
<path class="st0" d="M10.7,0h15c5.5,0,10,4.5,10,10v15c0,5.5-4.5,10-10,10h-15c-5.5,0-10-4.5-10-10V10C0.7,4.5,5.1,0,10.7,0z"/>
<path class="st1" d="M25.6,13.8c0-0.5,0-0.9-0.1-1.4c-0.2-0.8-0.7-1.4-1.4-1.9c-0.4-0.2-0.8-0.4-1.2-0.5C22.6,10,22.3,10,22,10
	c0,0-0.1,0-0.1,0h-7.5c-0.1,0-0.2,0-0.3,0c-0.5,0-0.9,0.1-1.4,0.3c-0.8,0.3-1.4,0.9-1.8,1.7c-0.1,0.3-0.2,0.6-0.2,0.9
	c0,0.2-0.1,0.5-0.1,0.7c0,0,0,0,0,0.1v7.6l0,0.3c0,0.5,0.1,1,0.3,1.5c0.4,0.9,1.1,1.5,2,1.8c0.3,0.1,0.5,0.1,0.8,0.1
	c0.3,0,0.7,0,1,0h6.9c0.3,0,0.7,0,1-0.1c0.5-0.1,1-0.2,1.4-0.5c0.5-0.3,0.9-0.8,1.2-1.4c0.1-0.3,0.2-0.5,0.2-0.8
	c0.1-0.4,0.1-0.8,0.1-1.3C25.7,18.6,25.7,16.2,25.6,13.8L25.6,13.8z M21.6,16.3v3.6c0,0.3,0,0.5-0.2,0.8c-0.2,0.4-0.5,0.6-0.9,0.7
	c-0.2,0.1-0.4,0.1-0.7,0.1c-0.3,0-0.6-0.1-0.8-0.2c-0.2-0.2-0.4-0.4-0.4-0.7c0-0.3,0-0.5,0.1-0.7c0.1-0.2,0.3-0.4,0.5-0.5
	c0.2-0.1,0.4-0.2,0.6-0.2c0.2-0.1,0.5-0.1,0.7-0.2c0.2,0,0.3-0.1,0.3-0.3c0,0,0-0.1,0-0.1V15c0,0,0-0.1,0-0.1c0-0.1-0.1-0.2-0.2-0.1
	c-0.1,0-0.2,0-0.3,0c-0.5,0.1-1,0.2-1.4,0.3l-2.3,0.5c0,0,0,0,0,0c-0.2,0-0.2,0.1-0.2,0.3c0,0,0,0.1,0,0.1c0,1.6,0,3.3,0,4.9
	c0,0.3,0,0.5-0.1,0.8c-0.2,0.4-0.5,0.7-0.9,0.8c-0.2,0.1-0.4,0.1-0.7,0.1c-0.6,0-1.1-0.4-1.2-1c-0.1-0.5,0.1-1.1,0.7-1.3
	c0.2-0.1,0.5-0.1,0.7-0.2l0.5-0.1c0.2-0.1,0.4-0.2,0.4-0.4v-0.1v-5.6c0-0.1,0-0.2,0-0.2c0-0.2,0.2-0.3,0.3-0.3
	c0.2,0,0.3-0.1,0.5-0.1c0.5-0.1,0.9-0.2,1.4-0.3l1.4-0.3c0.4-0.1,0.8-0.2,1.3-0.3c0.1,0,0.3-0.1,0.4-0.1c0.2,0,0.3,0.1,0.3,0.3
	c0,0,0,0.1,0,0.1L21.6,16.3L21.6,16.3z"/>
</svg>
