<?xml version="1.0" encoding="utf-8"?>
<!-- Generator: Adobe Illustrator 26.0.2, SVG Export Plug-In . SVG Version: 6.00 Build 0)  -->
<svg version="1.1" id="Laag_1" xmlns="http://www.w3.org/2000/svg" xmlns:xlink="http://www.w3.org/1999/xlink" x="0px" y="0px"
	 viewBox="0 0 36 35" style="enable-background:new 0 0 36 35;" xml:space="preserve">
<style type="text/css">
	.st0{fill:#070202;}
	.st1{fill:#FDCC0D;}
</style>
<path class="st0" d="M10.7,0h14.5c5.5,0,10,4.5,10,10v15c0,5.5-4.5,10-10,10H10.7c-5.5,0-10-4.5-10-10V10C0.7,4.5,5.1,0,10.7,0z"/>
<path class="st1" d="M17.9,10l-3.7,3.8L10.4,10l-3.7,3.8l3.7,3.8l3.8-3.8l3.7,3.8l-3.7,3.8l3.7,3.8l3.8-3.8l-3.8-3.8l3.8-3.8
	L17.9,10z M21.7,13.7l3.7-3.7l3.7,3.7l-3.7,3.7L21.7,13.7z"/>
</svg>
