<?xml version="1.0" encoding="utf-8"?>
<!-- Generator: Adobe Illustrator 26.0.2, SVG Export Plug-In . SVG Version: 6.00 Build 0)  -->
<svg version="1.1" id="Laag_1" xmlns="http://www.w3.org/2000/svg" xmlns:xlink="http://www.w3.org/1999/xlink" x="0px" y="0px"
	 viewBox="0 0 36 35" style="enable-background:new 0 0 36 35;" xml:space="preserve">
<style type="text/css">
	.st0{fill:#070202;}
	.st1{fill:#FDCC0D;}
</style>
<path class="st0" d="M10.6,0h15c5.5,0,10,4.5,10,10v15c0,5.5-4.5,10-10,10h-15c-5.5,0-10-4.5-10-10V10C0.6,4.5,5,0,10.6,0z"/>
<path class="st1" d="M18.4,10c0.8,0,1.6,0,2.4,0c0,1,0.4,1.9,1.1,2.6c0.7,0.7,1.7,1,2.6,1.1v2.5c-0.9,0-1.8-0.2-2.6-0.6
	c-0.4-0.2-0.7-0.4-1-0.6c0,1.8,0,3.7,0,5.5c0,0.9-0.3,1.7-0.8,2.5c-0.8,1.2-2.2,2-3.7,2c-0.9,0.1-1.8-0.2-2.5-0.6
	c-1.3-0.7-2.2-2.1-2.3-3.6c0-0.3,0-0.6,0-0.9c0.1-1.2,0.7-2.3,1.6-3.1c1-0.9,2.5-1.3,3.8-1.1c0,0.9,0,1.9,0,2.8
	c-0.6-0.2-1.3-0.1-1.9,0.2c-0.4,0.3-0.7,0.6-0.9,1.1c-0.1,0.3-0.1,0.7-0.1,1c0.1,1,1.1,1.9,2.2,1.8c0.7,0,1.4-0.4,1.7-1
	c0.1-0.2,0.2-0.4,0.3-0.7c0.1-1.1,0-2.2,0-3.3C18.4,15,18.4,12.5,18.4,10L18.4,10z"/>
</svg>
