<?xml version="1.0" encoding="utf-8"?>
<!-- Generator: Adobe Illustrator 26.0.2, SVG Export Plug-In . SVG Version: 6.00 Build 0)  -->
<svg version="1.1" id="Laag_1" xmlns="http://www.w3.org/2000/svg" xmlns:xlink="http://www.w3.org/1999/xlink" x="0px" y="0px"
	 viewBox="0 0 36 35" style="enable-background:new 0 0 36 35;" xml:space="preserve">
<style type="text/css">
	.st0{fill:#070202;}
	.st1{fill:#FDCC0D;}
</style>
<path class="st0" d="M10.7,0h15c5.5,0,10,4.5,10,10v15c0,5.5-4.5,10-10,10h-15c-5.5,0-10-4.5-10-10V10C0.7,4.5,5.1,0,10.7,0z"/>
<path class="st1" d="M18.2,10c-4.1,0-7.5,3.4-7.5,7.5c0,4.1,3.4,7.5,7.5,7.5c4.1,0,7.5-3.4,7.5-7.5C25.7,13.4,22.3,10,18.2,10z
	 M21.6,20.8c-0.1,0.2-0.4,0.3-0.6,0.2c-1.8-1.1-4-1.3-6.6-0.7c-0.3,0.1-0.5-0.1-0.6-0.3c-0.1-0.3,0.1-0.5,0.3-0.6
	c2.8-0.6,5.3-0.4,7.3,0.8C21.7,20.3,21.7,20.6,21.6,20.8z M22.5,18.8C22.3,19,22,19.1,21.7,19c-2-1.2-5.1-1.6-7.5-0.9
	c-0.3,0.1-0.6-0.1-0.7-0.4c-0.1-0.3,0.1-0.6,0.4-0.7c2.7-0.8,6.1-0.4,8.4,1C22.6,18.1,22.7,18.5,22.5,18.8z M22.6,16.7
	c-2.4-1.4-6.4-1.6-8.7-0.9c-0.2,0.1-0.4,0-0.5-0.1c-0.2-0.1-0.3-0.2-0.3-0.4c-0.1-0.2,0-0.4,0.1-0.5c0.1-0.2,0.2-0.3,0.4-0.3
	c2.7-0.8,7.1-0.6,9.8,1c0.3,0.2,0.4,0.6,0.3,1C23.4,16.8,22.9,16.9,22.6,16.7z"/>
</svg>
