<?xml version="1.0" encoding="utf-8"?>
<!-- Generator: Adobe Illustrator 26.0.2, SVG Export Plug-In . SVG Version: 6.00 Build 0)  -->
<svg version="1.1" id="Laag_1" xmlns="http://www.w3.org/2000/svg" xmlns:xlink="http://www.w3.org/1999/xlink" x="0px" y="0px"
	 viewBox="0 0 33 35" style="enable-background:new 0 0 33 35;" xml:space="preserve">
<style type="text/css">
	.st0{fill:#070202;}
	.st1{fill:#FDCC0D;}
</style>
<path class="st0" d="M10,0h12.8c5.5,0,10,4.5,10,10v15c0,5.5-4.5,10-10,10H10C4.5,35,0,30.5,0,25V10C0,4.5,4.5,0,10,0z"/>
<path class="st1" d="M21,11.7v4.7h-1v-0.5c-0.4,0.4-0.7,0.6-1.1,0.6c-0.4,0-0.7-0.3-0.7-0.8v-3.9h1v3.6c0,0.2,0.1,0.3,0.3,0.3
	s0.4-0.1,0.6-0.4v-3.6H21z M17.4,12.8v2.4c0,0.4-0.1,0.7-0.4,1c-0.2,0.2-0.6,0.3-1,0.3c-0.4,0-0.7-0.1-1-0.4c-0.3-0.2-0.4-0.6-0.4-1
	v-2.4c0-0.4,0.1-0.7,0.4-0.9c0.3-0.2,0.6-0.3,1-0.3c0.4,0,0.7,0.1,1,0.3C17.3,12.1,17.4,12.4,17.4,12.8z M16.5,15.3v-2.6
	c0-0.1,0-0.2-0.1-0.2c-0.1-0.1-0.2-0.1-0.3-0.1s-0.2,0-0.3,0.1c-0.1,0.1-0.1,0.1-0.1,0.2v2.6c0,0.3,0.1,0.4,0.4,0.4
	C16.3,15.7,16.5,15.5,16.5,15.3z M13.6,10h1.1l-0.8,2.5c0,0.1-0.1,0.3-0.2,0.4c-0.1,0.2-0.1,0.3-0.2,0.4s-0.1,0.3-0.1,0.4v2.6h-1.1
	v-2.5c0-0.1-0.2-0.5-0.4-1.3L11.1,10h1.1l0.7,2.5H13L13.6,10z M22.8,21.1c0,0.5,0,1.2-0.1,2.2c0,0.5-0.2,0.9-0.6,1.2
	c-0.3,0.3-0.8,0.5-1.3,0.5c-1,0.1-2.5,0.1-4.5,0.1c-2,0-3.5,0-4.5-0.1c-0.5,0-0.9-0.2-1.3-0.5c-0.3-0.3-0.5-0.7-0.6-1.2
	c-0.1-1-0.1-1.7-0.1-2.2c0-0.5,0-1.2,0.1-2.2c0-0.5,0.2-0.9,0.6-1.2c0.3-0.3,0.8-0.5,1.3-0.5c1-0.1,2.5-0.1,4.5-0.1s3.5,0,4.5,0.1
	c0.5,0,0.9,0.2,1.3,0.5c0.3,0.3,0.5,0.7,0.6,1.2C22.8,19.9,22.8,20.6,22.8,21.1z M21.7,22.5v-0.3h-0.8c0,0,0,0.1,0,0.2
	c0,0.1,0,0.2,0,0.2c0,0,0,0.1,0,0.2c0,0.1-0.1,0.1-0.1,0.2c0,0-0.1,0-0.2,0c-0.1,0-0.2,0-0.2-0.1c-0.1-0.1-0.1-0.1-0.1-0.2
	c0-0.1,0-0.1,0-0.3v-0.7h1.5v-1c0-0.3-0.1-0.6-0.3-0.8c-0.2-0.2-0.5-0.3-0.8-0.3c-0.3,0-0.6,0.1-0.8,0.3c-0.2,0.2-0.3,0.5-0.3,0.8
	v1.7c0,0.4,0.1,0.6,0.3,0.9c0.2,0.2,0.5,0.3,0.8,0.3C21.3,23.6,21.7,23.2,21.7,22.5z M18.9,22.7v-2.1c0-0.6-0.2-0.9-0.8-0.9
	c-0.2,0-0.5,0.1-0.7,0.3v-1.6h-0.8v5.1h0.8v-0.3c0.2,0.2,0.5,0.3,0.7,0.3C18.6,23.6,18.9,23.3,18.9,22.7z M15.1,23.5h0.8v-3.8h-0.8
	v2.9c-0.2,0.2-0.3,0.3-0.5,0.3c-0.1,0-0.2-0.1-0.2-0.3v-2.9h-0.8v3.2c0,0.4,0.2,0.7,0.5,0.7c0.3,0,0.6-0.2,0.9-0.5V23.5z M12.8,19.1
	h0.9v-0.8H11v0.8h0.9v4.4h0.9V19.1z M20.9,20.7v0.4h-0.7v-0.4c0-0.3,0.1-0.4,0.3-0.4C20.8,20.3,20.9,20.4,20.9,20.7z M18.1,20.7v2
	c0,0.2-0.1,0.3-0.3,0.3c-0.1,0-0.3-0.1-0.4-0.2v-2.4c0.1-0.1,0.2-0.1,0.3-0.1C18,20.3,18.1,20.4,18.1,20.7z"/>
</svg>
