<?xml version="1.0" encoding="utf-8"?>
<!-- Generator: Adobe Illustrator 26.0.2, SVG Export Plug-In . SVG Version: 6.00 Build 0)  -->
<svg version="1.1" id="Laag_1" xmlns="http://www.w3.org/2000/svg" xmlns:xlink="http://www.w3.org/1999/xlink" x="0px" y="0px"
	 viewBox="0 0 36 35" style="enable-background:new 0 0 36 35;" xml:space="preserve">
<style type="text/css">
	.st0{fill:#070202;}
	.st1{fill:#FDCC0D;}
</style>
<path class="st0" d="M10.8,0h15c5.5,0,10,4.5,10,10v15c0,5.5-4.5,10-10,10h-15c-5.5,0-10-4.5-10-10V10C0.8,4.5,5.3,0,10.8,0z"/>
<path class="st1" d="M18.3,15c-1.4,0-2.5,1.1-2.5,2.5s1.1,2.5,2.5,2.5c1.4,0,2.5-1.1,2.5-2.5S19.7,15,18.3,15z M25.8,17.5
	c0-1,0-2.1,0-3.1c-0.1-1.2-0.3-2.3-1.2-3.1c-0.9-0.9-1.9-1.2-3.1-1.2c-1-0.1-2.1,0-3.1,0c-1,0-2.1,0-3.1,0c-1.2,0.1-2.3,0.3-3.1,1.2
	c-0.9,0.9-1.2,1.9-1.2,3.1c-0.1,1,0,2.1,0,3.1s0,2.1,0,3.1c0.1,1.2,0.3,2.3,1.2,3.1c0.9,0.9,1.9,1.2,3.1,1.2c1,0.1,2.1,0,3.1,0
	c1,0,2.1,0,3.1,0c1.2-0.1,2.3-0.3,3.1-1.2c0.9-0.9,1.2-1.9,1.2-3.1C25.8,19.6,25.8,18.5,25.8,17.5z M18.3,21.3
	c-2.1,0-3.8-1.7-3.8-3.8s1.7-3.8,3.8-3.8s3.8,1.7,3.8,3.8S20.4,21.3,18.3,21.3z M22.3,14.4c-0.5,0-0.9-0.4-0.9-0.9s0.4-0.9,0.9-0.9
	c0.5,0,0.9,0.4,0.9,0.9c0,0.1,0,0.2-0.1,0.3c0,0.1-0.1,0.2-0.2,0.3s-0.2,0.1-0.3,0.2C22.5,14.4,22.4,14.4,22.3,14.4z"/>
</svg>
