<?xml version="1.0" encoding="utf-8"?>
<!-- Generator: Adobe Illustrator 26.0.2, SVG Export Plug-In . SVG Version: 6.00 Build 0)  -->
<svg version="1.1" id="Laag_1" xmlns="http://www.w3.org/2000/svg" xmlns:xlink="http://www.w3.org/1999/xlink" x="0px" y="0px"
	 viewBox="0 0 35 35" style="enable-background:new 0 0 35 35;" xml:space="preserve">
<style type="text/css">
	.st0{fill:#070202;}
	.st1{fill:#FDCC0D;}
</style>
<path class="st0" d="M10.6,0h14.1c5.5,0,10,4.5,10,10v15c0,5.5-4.5,10-10,10H10.6c-5.5,0-10-4.5-10-10V10C0.6,4.5,5.1,0,10.6,0z"/>
<path class="st1" d="M17.8,10c0.7,0,2.9,0.2,4,2.6c0.4,0.8,0.3,2.2,0.2,3.2l0,0c0,0.1,0,0.2,0,0.3c0.1,0,0.2,0.1,0.3,0.1
	c0.2,0,0.4-0.1,0.7-0.2c0.1,0,0.2-0.1,0.3-0.1c0.1,0,0.2,0,0.3,0.1c0.3,0.1,0.5,0.3,0.5,0.6c0,0.3-0.3,0.6-0.8,0.8
	c-0.1,0-0.1,0.1-0.2,0.1c-0.3,0.1-0.8,0.2-0.9,0.5c-0.1,0.2,0,0.4,0.1,0.6l0,0c0,0.1,1,2.3,3.2,2.7c0.1,0,0.2,0.1,0.2,0.1
	c0.1,0.1,0.1,0.1,0.1,0.2c0,0,0,0.1,0,0.2c-0.2,0.4-0.9,0.7-2.1,0.8c0,0.1-0.1,0.3-0.1,0.4c0,0.1-0.1,0.2-0.1,0.4
	c-0.1,0.2-0.2,0.3-0.4,0.3h0c-0.1,0-0.2,0-0.4,0c-0.3-0.1-0.6-0.1-0.9-0.1c-0.2,0-0.4,0-0.6,0c-0.4,0.1-0.8,0.3-1.2,0.6
	c-0.6,0.4-1.2,0.9-2.2,0.9c0,0-0.1,0-0.1,0h-0.1c-1,0-1.6-0.5-2.2-0.9c-0.4-0.3-0.7-0.5-1.1-0.6c-0.2,0-0.4,0-0.6,0
	c-0.4,0-0.6,0.1-0.9,0.1c-0.1,0-0.3,0-0.4,0c-0.1,0-0.2,0-0.2-0.1C12,23.5,12,23.4,12,23.4c0-0.1-0.1-0.3-0.1-0.4
	c0-0.1-0.1-0.3-0.1-0.4c-1.3-0.1-2-0.4-2.1-0.8c0,0,0-0.1,0-0.2c0-0.1,0-0.2,0.1-0.2c0.1-0.1,0.1-0.1,0.2-0.1
	c2.2-0.4,3.2-2.6,3.2-2.7l0,0c0.1-0.2,0.1-0.4,0.1-0.6c-0.1-0.3-0.6-0.4-0.9-0.5c-0.1,0-0.2,0-0.2-0.1c-0.7-0.3-0.8-0.6-0.8-0.9
	c0.1-0.3,0.5-0.5,0.8-0.5c0.1,0,0.2,0,0.3,0c0.3,0.1,0.5,0.2,0.7,0.2c0.1,0,0.2,0,0.3-0.1l0-0.4c-0.1-1.1-0.2-2.4,0.2-3.2
	c1-2.4,3.3-2.5,3.9-2.5L17.8,10L17.8,10z"/>
</svg>
